<mxfile host="app.diagrams.net" modified="2024-05-22T12:13:04.894Z" agent="Mozilla/5.0 (Windows NT 10.0; Win64; x64) AppleWebKit/537.36 (KHTML, like Gecko) Chrome/124.0.0.0 Safari/537.36" etag="jppoWy4XZ8siaYHg3sPx" version="22.1.16" type="github">
  <diagram name="Page-1" id="8_mFlx4mrDrwTWhnJcBq">
    <mxGraphModel dx="2418" dy="1040" grid="0" gridSize="10" guides="1" tooltips="1" connect="1" arrows="1" fold="1" page="0" pageScale="1" pageWidth="850" pageHeight="1100" math="0" shadow="0">
      <root>
        <mxCell id="0" />
        <mxCell id="1" parent="0" />
        <mxCell id="YvWMIb-g1JlfHmVvu372-1" value="ChuongTrinhDaoTao" style="shape=table;startSize=30;container=1;collapsible=1;childLayout=tableLayout;fixedRows=1;rowLines=0;fontStyle=1;align=center;resizeLast=1;html=1;fontSize=16;" vertex="1" parent="1">
          <mxGeometry x="28" y="17" width="233.8116455078125" height="154" as="geometry" />
        </mxCell>
        <mxCell id="YvWMIb-g1JlfHmVvu372-2" value="" style="shape=tableRow;horizontal=0;startSize=0;swimlaneHead=0;swimlaneBody=0;fillColor=none;collapsible=0;dropTarget=0;points=[[0,0.5],[1,0.5]];portConstraint=eastwest;top=0;left=0;right=0;bottom=1;fontSize=16;" vertex="1" parent="YvWMIb-g1JlfHmVvu372-1">
          <mxGeometry y="30" width="233.8116455078125" height="30" as="geometry" />
        </mxCell>
        <mxCell id="YvWMIb-g1JlfHmVvu372-3" value="PK" style="shape=partialRectangle;connectable=0;fillColor=none;top=0;left=0;bottom=0;right=0;fontStyle=1;overflow=hidden;whiteSpace=wrap;html=1;fontSize=16;" vertex="1" parent="YvWMIb-g1JlfHmVvu372-2">
          <mxGeometry width="30" height="30" as="geometry">
            <mxRectangle width="30" height="30" as="alternateBounds" />
          </mxGeometry>
        </mxCell>
        <mxCell id="YvWMIb-g1JlfHmVvu372-4" value="maChuongTrinhDaoTao" style="shape=partialRectangle;connectable=0;fillColor=none;top=0;left=0;bottom=0;right=0;align=left;spacingLeft=6;fontStyle=5;overflow=hidden;whiteSpace=wrap;html=1;fontSize=16;" vertex="1" parent="YvWMIb-g1JlfHmVvu372-2">
          <mxGeometry x="30" width="203.8116455078125" height="30" as="geometry">
            <mxRectangle width="203.8116455078125" height="30" as="alternateBounds" />
          </mxGeometry>
        </mxCell>
        <mxCell id="YvWMIb-g1JlfHmVvu372-5" value="" style="shape=tableRow;horizontal=0;startSize=0;swimlaneHead=0;swimlaneBody=0;fillColor=none;collapsible=0;dropTarget=0;points=[[0,0.5],[1,0.5]];portConstraint=eastwest;top=0;left=0;right=0;bottom=0;fontSize=16;" vertex="1" parent="YvWMIb-g1JlfHmVvu372-1">
          <mxGeometry y="60" width="233.8116455078125" height="34" as="geometry" />
        </mxCell>
        <mxCell id="YvWMIb-g1JlfHmVvu372-6" value="" style="shape=partialRectangle;connectable=0;fillColor=none;top=0;left=0;bottom=0;right=0;editable=1;overflow=hidden;whiteSpace=wrap;html=1;fontSize=16;" vertex="1" parent="YvWMIb-g1JlfHmVvu372-5">
          <mxGeometry width="30" height="34" as="geometry">
            <mxRectangle width="30" height="34" as="alternateBounds" />
          </mxGeometry>
        </mxCell>
        <mxCell id="YvWMIb-g1JlfHmVvu372-7" value="tenCTDT" style="shape=partialRectangle;connectable=0;fillColor=none;top=0;left=0;bottom=0;right=0;align=left;spacingLeft=6;overflow=hidden;whiteSpace=wrap;html=1;fontSize=16;" vertex="1" parent="YvWMIb-g1JlfHmVvu372-5">
          <mxGeometry x="30" width="203.8116455078125" height="34" as="geometry">
            <mxRectangle width="203.8116455078125" height="34" as="alternateBounds" />
          </mxGeometry>
        </mxCell>
        <mxCell id="YvWMIb-g1JlfHmVvu372-8" value="" style="shape=tableRow;horizontal=0;startSize=0;swimlaneHead=0;swimlaneBody=0;fillColor=none;collapsible=0;dropTarget=0;points=[[0,0.5],[1,0.5]];portConstraint=eastwest;top=0;left=0;right=0;bottom=0;fontSize=16;" vertex="1" parent="YvWMIb-g1JlfHmVvu372-1">
          <mxGeometry y="94" width="233.8116455078125" height="30" as="geometry" />
        </mxCell>
        <mxCell id="YvWMIb-g1JlfHmVvu372-9" value="" style="shape=partialRectangle;connectable=0;fillColor=none;top=0;left=0;bottom=0;right=0;editable=1;overflow=hidden;whiteSpace=wrap;html=1;fontSize=16;" vertex="1" parent="YvWMIb-g1JlfHmVvu372-8">
          <mxGeometry width="30" height="30" as="geometry">
            <mxRectangle width="30" height="30" as="alternateBounds" />
          </mxGeometry>
        </mxCell>
        <mxCell id="YvWMIb-g1JlfHmVvu372-10" value="soTinChi" style="shape=partialRectangle;connectable=0;fillColor=none;top=0;left=0;bottom=0;right=0;align=left;spacingLeft=6;overflow=hidden;whiteSpace=wrap;html=1;fontSize=16;" vertex="1" parent="YvWMIb-g1JlfHmVvu372-8">
          <mxGeometry x="30" width="203.8116455078125" height="30" as="geometry">
            <mxRectangle width="203.8116455078125" height="30" as="alternateBounds" />
          </mxGeometry>
        </mxCell>
        <mxCell id="YvWMIb-g1JlfHmVvu372-11" value="" style="shape=tableRow;horizontal=0;startSize=0;swimlaneHead=0;swimlaneBody=0;fillColor=none;collapsible=0;dropTarget=0;points=[[0,0.5],[1,0.5]];portConstraint=eastwest;top=0;left=0;right=0;bottom=0;fontSize=16;" vertex="1" parent="YvWMIb-g1JlfHmVvu372-1">
          <mxGeometry y="124" width="233.8116455078125" height="30" as="geometry" />
        </mxCell>
        <mxCell id="YvWMIb-g1JlfHmVvu372-12" value="" style="shape=partialRectangle;connectable=0;fillColor=none;top=0;left=0;bottom=0;right=0;editable=1;overflow=hidden;whiteSpace=wrap;html=1;fontSize=16;" vertex="1" parent="YvWMIb-g1JlfHmVvu372-11">
          <mxGeometry width="30" height="30" as="geometry">
            <mxRectangle width="30" height="30" as="alternateBounds" />
          </mxGeometry>
        </mxCell>
        <mxCell id="YvWMIb-g1JlfHmVvu372-13" value="namBatDauDaoTao" style="shape=partialRectangle;connectable=0;fillColor=none;top=0;left=0;bottom=0;right=0;align=left;spacingLeft=6;overflow=hidden;whiteSpace=wrap;html=1;fontSize=16;" vertex="1" parent="YvWMIb-g1JlfHmVvu372-11">
          <mxGeometry x="30" width="203.8116455078125" height="30" as="geometry">
            <mxRectangle width="203.8116455078125" height="30" as="alternateBounds" />
          </mxGeometry>
        </mxCell>
        <mxCell id="YvWMIb-g1JlfHmVvu372-14" value="SinhVien" style="shape=table;startSize=30;container=1;collapsible=1;childLayout=tableLayout;fixedRows=1;rowLines=0;fontStyle=1;align=center;resizeLast=1;html=1;fontSize=16;" vertex="1" parent="1">
          <mxGeometry x="401" y="15" width="180" height="238.0234375" as="geometry" />
        </mxCell>
        <mxCell id="YvWMIb-g1JlfHmVvu372-15" value="" style="shape=tableRow;horizontal=0;startSize=0;swimlaneHead=0;swimlaneBody=0;fillColor=none;collapsible=0;dropTarget=0;points=[[0,0.5],[1,0.5]];portConstraint=eastwest;top=0;left=0;right=0;bottom=1;fontSize=16;" vertex="1" parent="YvWMIb-g1JlfHmVvu372-14">
          <mxGeometry y="30" width="180" height="30" as="geometry" />
        </mxCell>
        <mxCell id="YvWMIb-g1JlfHmVvu372-16" value="PK" style="shape=partialRectangle;connectable=0;fillColor=none;top=0;left=0;bottom=0;right=0;fontStyle=1;overflow=hidden;whiteSpace=wrap;html=1;fontSize=16;" vertex="1" parent="YvWMIb-g1JlfHmVvu372-15">
          <mxGeometry width="30" height="30" as="geometry">
            <mxRectangle width="30" height="30" as="alternateBounds" />
          </mxGeometry>
        </mxCell>
        <mxCell id="YvWMIb-g1JlfHmVvu372-17" value="maSinhVien" style="shape=partialRectangle;connectable=0;fillColor=none;top=0;left=0;bottom=0;right=0;align=left;spacingLeft=6;fontStyle=5;overflow=hidden;whiteSpace=wrap;html=1;fontSize=16;" vertex="1" parent="YvWMIb-g1JlfHmVvu372-15">
          <mxGeometry x="30" width="150" height="30" as="geometry">
            <mxRectangle width="150" height="30" as="alternateBounds" />
          </mxGeometry>
        </mxCell>
        <mxCell id="YvWMIb-g1JlfHmVvu372-18" value="" style="shape=tableRow;horizontal=0;startSize=0;swimlaneHead=0;swimlaneBody=0;fillColor=none;collapsible=0;dropTarget=0;points=[[0,0.5],[1,0.5]];portConstraint=eastwest;top=0;left=0;right=0;bottom=0;fontSize=16;" vertex="1" parent="YvWMIb-g1JlfHmVvu372-14">
          <mxGeometry y="60" width="180" height="30" as="geometry" />
        </mxCell>
        <mxCell id="YvWMIb-g1JlfHmVvu372-19" value="" style="shape=partialRectangle;connectable=0;fillColor=none;top=0;left=0;bottom=0;right=0;editable=1;overflow=hidden;whiteSpace=wrap;html=1;fontSize=16;" vertex="1" parent="YvWMIb-g1JlfHmVvu372-18">
          <mxGeometry width="30" height="30" as="geometry">
            <mxRectangle width="30" height="30" as="alternateBounds" />
          </mxGeometry>
        </mxCell>
        <mxCell id="YvWMIb-g1JlfHmVvu372-20" value="hoDem" style="shape=partialRectangle;connectable=0;fillColor=none;top=0;left=0;bottom=0;right=0;align=left;spacingLeft=6;overflow=hidden;whiteSpace=wrap;html=1;fontSize=16;" vertex="1" parent="YvWMIb-g1JlfHmVvu372-18">
          <mxGeometry x="30" width="150" height="30" as="geometry">
            <mxRectangle width="150" height="30" as="alternateBounds" />
          </mxGeometry>
        </mxCell>
        <mxCell id="YvWMIb-g1JlfHmVvu372-21" value="" style="shape=tableRow;horizontal=0;startSize=0;swimlaneHead=0;swimlaneBody=0;fillColor=none;collapsible=0;dropTarget=0;points=[[0,0.5],[1,0.5]];portConstraint=eastwest;top=0;left=0;right=0;bottom=0;fontSize=16;" vertex="1" parent="YvWMIb-g1JlfHmVvu372-14">
          <mxGeometry y="90" width="180" height="30" as="geometry" />
        </mxCell>
        <mxCell id="YvWMIb-g1JlfHmVvu372-22" value="" style="shape=partialRectangle;connectable=0;fillColor=none;top=0;left=0;bottom=0;right=0;editable=1;overflow=hidden;whiteSpace=wrap;html=1;fontSize=16;" vertex="1" parent="YvWMIb-g1JlfHmVvu372-21">
          <mxGeometry width="30" height="30" as="geometry">
            <mxRectangle width="30" height="30" as="alternateBounds" />
          </mxGeometry>
        </mxCell>
        <mxCell id="YvWMIb-g1JlfHmVvu372-23" value="ten" style="shape=partialRectangle;connectable=0;fillColor=none;top=0;left=0;bottom=0;right=0;align=left;spacingLeft=6;overflow=hidden;whiteSpace=wrap;html=1;fontSize=16;" vertex="1" parent="YvWMIb-g1JlfHmVvu372-21">
          <mxGeometry x="30" width="150" height="30" as="geometry">
            <mxRectangle width="150" height="30" as="alternateBounds" />
          </mxGeometry>
        </mxCell>
        <mxCell id="YvWMIb-g1JlfHmVvu372-24" value="" style="shape=tableRow;horizontal=0;startSize=0;swimlaneHead=0;swimlaneBody=0;fillColor=none;collapsible=0;dropTarget=0;points=[[0,0.5],[1,0.5]];portConstraint=eastwest;top=0;left=0;right=0;bottom=0;fontSize=16;" vertex="1" parent="YvWMIb-g1JlfHmVvu372-14">
          <mxGeometry y="120" width="180" height="30" as="geometry" />
        </mxCell>
        <mxCell id="YvWMIb-g1JlfHmVvu372-25" value="" style="shape=partialRectangle;connectable=0;fillColor=none;top=0;left=0;bottom=0;right=0;editable=1;overflow=hidden;whiteSpace=wrap;html=1;fontSize=16;" vertex="1" parent="YvWMIb-g1JlfHmVvu372-24">
          <mxGeometry width="30" height="30" as="geometry">
            <mxRectangle width="30" height="30" as="alternateBounds" />
          </mxGeometry>
        </mxCell>
        <mxCell id="YvWMIb-g1JlfHmVvu372-26" value="ngaySinh" style="shape=partialRectangle;connectable=0;fillColor=none;top=0;left=0;bottom=0;right=0;align=left;spacingLeft=6;overflow=hidden;whiteSpace=wrap;html=1;fontSize=16;" vertex="1" parent="YvWMIb-g1JlfHmVvu372-24">
          <mxGeometry x="30" width="150" height="30" as="geometry">
            <mxRectangle width="150" height="30" as="alternateBounds" />
          </mxGeometry>
        </mxCell>
        <mxCell id="YvWMIb-g1JlfHmVvu372-27" value="" style="shape=tableRow;horizontal=0;startSize=0;swimlaneHead=0;swimlaneBody=0;fillColor=none;collapsible=0;dropTarget=0;points=[[0,0.5],[1,0.5]];portConstraint=eastwest;top=0;left=0;right=0;bottom=0;fontSize=16;" vertex="1" parent="YvWMIb-g1JlfHmVvu372-14">
          <mxGeometry y="150" width="180" height="30" as="geometry" />
        </mxCell>
        <mxCell id="YvWMIb-g1JlfHmVvu372-28" value="" style="shape=partialRectangle;connectable=0;fillColor=none;top=0;left=0;bottom=0;right=0;editable=1;overflow=hidden;whiteSpace=wrap;html=1;fontSize=16;" vertex="1" parent="YvWMIb-g1JlfHmVvu372-27">
          <mxGeometry width="30" height="30" as="geometry">
            <mxRectangle width="30" height="30" as="alternateBounds" />
          </mxGeometry>
        </mxCell>
        <mxCell id="YvWMIb-g1JlfHmVvu372-29" value="namNhapHoc" style="shape=partialRectangle;connectable=0;fillColor=none;top=0;left=0;bottom=0;right=0;align=left;spacingLeft=6;overflow=hidden;whiteSpace=wrap;html=1;fontSize=16;" vertex="1" parent="YvWMIb-g1JlfHmVvu372-27">
          <mxGeometry x="30" width="150" height="30" as="geometry">
            <mxRectangle width="150" height="30" as="alternateBounds" />
          </mxGeometry>
        </mxCell>
        <mxCell id="YvWMIb-g1JlfHmVvu372-34" value="" style="shape=tableRow;horizontal=0;startSize=0;swimlaneHead=0;swimlaneBody=0;fillColor=none;collapsible=0;dropTarget=0;points=[[0,0.5],[1,0.5]];portConstraint=eastwest;top=0;left=0;right=0;bottom=0;fontSize=16;" vertex="1" parent="YvWMIb-g1JlfHmVvu372-14">
          <mxGeometry y="180" width="180" height="30" as="geometry" />
        </mxCell>
        <mxCell id="YvWMIb-g1JlfHmVvu372-35" value="FK" style="shape=partialRectangle;connectable=0;fillColor=none;top=0;left=0;bottom=0;right=0;fontStyle=0;overflow=hidden;whiteSpace=wrap;html=1;fontSize=16;" vertex="1" parent="YvWMIb-g1JlfHmVvu372-34">
          <mxGeometry width="30" height="30" as="geometry">
            <mxRectangle width="30" height="30" as="alternateBounds" />
          </mxGeometry>
        </mxCell>
        <mxCell id="YvWMIb-g1JlfHmVvu372-36" value="maCTDT" style="shape=partialRectangle;connectable=0;fillColor=none;top=0;left=0;bottom=0;right=0;align=left;spacingLeft=6;fontStyle=0;overflow=hidden;whiteSpace=wrap;html=1;fontSize=16;" vertex="1" parent="YvWMIb-g1JlfHmVvu372-34">
          <mxGeometry x="30" width="150" height="30" as="geometry">
            <mxRectangle width="150" height="30" as="alternateBounds" />
          </mxGeometry>
        </mxCell>
        <mxCell id="YvWMIb-g1JlfHmVvu372-30" value="" style="shape=tableRow;horizontal=0;startSize=0;swimlaneHead=0;swimlaneBody=0;fillColor=none;collapsible=0;dropTarget=0;points=[[0,0.5],[1,0.5]];portConstraint=eastwest;top=0;left=0;right=0;bottom=0;fontSize=16;" vertex="1" parent="YvWMIb-g1JlfHmVvu372-14">
          <mxGeometry y="210" width="180" height="28" as="geometry" />
        </mxCell>
        <mxCell id="YvWMIb-g1JlfHmVvu372-31" value="" style="shape=partialRectangle;connectable=0;fillColor=none;top=0;left=0;bottom=0;right=0;editable=1;overflow=hidden;whiteSpace=wrap;html=1;fontSize=16;" vertex="1" parent="YvWMIb-g1JlfHmVvu372-30">
          <mxGeometry width="30" height="28" as="geometry">
            <mxRectangle width="30" height="28" as="alternateBounds" />
          </mxGeometry>
        </mxCell>
        <mxCell id="YvWMIb-g1JlfHmVvu372-32" value="" style="shape=partialRectangle;connectable=0;fillColor=none;top=0;left=0;bottom=0;right=0;align=left;spacingLeft=6;overflow=hidden;whiteSpace=wrap;html=1;fontSize=16;" vertex="1" parent="YvWMIb-g1JlfHmVvu372-30">
          <mxGeometry x="30" width="150" height="28" as="geometry">
            <mxRectangle width="150" height="28" as="alternateBounds" />
          </mxGeometry>
        </mxCell>
        <mxCell id="YvWMIb-g1JlfHmVvu372-37" value="" style="edgeStyle=entityRelationEdgeStyle;fontSize=12;html=1;endArrow=ERoneToMany;rounded=0;startSize=8;endSize=8;curved=1;exitX=1;exitY=0.5;exitDx=0;exitDy=0;entryX=0;entryY=0.5;entryDx=0;entryDy=0;" edge="1" parent="1" source="YvWMIb-g1JlfHmVvu372-2" target="YvWMIb-g1JlfHmVvu372-34">
          <mxGeometry width="100" height="100" relative="1" as="geometry">
            <mxPoint x="-15" y="321" as="sourcePoint" />
            <mxPoint x="85" y="221" as="targetPoint" />
          </mxGeometry>
        </mxCell>
        <mxCell id="YvWMIb-g1JlfHmVvu372-38" value="NhanVien" style="shape=table;startSize=30;container=1;collapsible=1;childLayout=tableLayout;fixedRows=1;rowLines=0;fontStyle=1;align=center;resizeLast=1;html=1;fontSize=16;" vertex="1" parent="1">
          <mxGeometry x="459" y="546" width="180" height="180" as="geometry" />
        </mxCell>
        <mxCell id="YvWMIb-g1JlfHmVvu372-39" value="" style="shape=tableRow;horizontal=0;startSize=0;swimlaneHead=0;swimlaneBody=0;fillColor=none;collapsible=0;dropTarget=0;points=[[0,0.5],[1,0.5]];portConstraint=eastwest;top=0;left=0;right=0;bottom=1;fontSize=16;" vertex="1" parent="YvWMIb-g1JlfHmVvu372-38">
          <mxGeometry y="30" width="180" height="30" as="geometry" />
        </mxCell>
        <mxCell id="YvWMIb-g1JlfHmVvu372-40" value="PK" style="shape=partialRectangle;connectable=0;fillColor=none;top=0;left=0;bottom=0;right=0;fontStyle=1;overflow=hidden;whiteSpace=wrap;html=1;fontSize=16;" vertex="1" parent="YvWMIb-g1JlfHmVvu372-39">
          <mxGeometry width="30" height="30" as="geometry">
            <mxRectangle width="30" height="30" as="alternateBounds" />
          </mxGeometry>
        </mxCell>
        <mxCell id="YvWMIb-g1JlfHmVvu372-41" value="maNhanVien" style="shape=partialRectangle;connectable=0;fillColor=none;top=0;left=0;bottom=0;right=0;align=left;spacingLeft=6;fontStyle=5;overflow=hidden;whiteSpace=wrap;html=1;fontSize=16;" vertex="1" parent="YvWMIb-g1JlfHmVvu372-39">
          <mxGeometry x="30" width="150" height="30" as="geometry">
            <mxRectangle width="150" height="30" as="alternateBounds" />
          </mxGeometry>
        </mxCell>
        <mxCell id="YvWMIb-g1JlfHmVvu372-42" value="" style="shape=tableRow;horizontal=0;startSize=0;swimlaneHead=0;swimlaneBody=0;fillColor=none;collapsible=0;dropTarget=0;points=[[0,0.5],[1,0.5]];portConstraint=eastwest;top=0;left=0;right=0;bottom=0;fontSize=16;" vertex="1" parent="YvWMIb-g1JlfHmVvu372-38">
          <mxGeometry y="60" width="180" height="30" as="geometry" />
        </mxCell>
        <mxCell id="YvWMIb-g1JlfHmVvu372-43" value="" style="shape=partialRectangle;connectable=0;fillColor=none;top=0;left=0;bottom=0;right=0;editable=1;overflow=hidden;whiteSpace=wrap;html=1;fontSize=16;" vertex="1" parent="YvWMIb-g1JlfHmVvu372-42">
          <mxGeometry width="30" height="30" as="geometry">
            <mxRectangle width="30" height="30" as="alternateBounds" />
          </mxGeometry>
        </mxCell>
        <mxCell id="YvWMIb-g1JlfHmVvu372-44" value="hoDem" style="shape=partialRectangle;connectable=0;fillColor=none;top=0;left=0;bottom=0;right=0;align=left;spacingLeft=6;overflow=hidden;whiteSpace=wrap;html=1;fontSize=16;" vertex="1" parent="YvWMIb-g1JlfHmVvu372-42">
          <mxGeometry x="30" width="150" height="30" as="geometry">
            <mxRectangle width="150" height="30" as="alternateBounds" />
          </mxGeometry>
        </mxCell>
        <mxCell id="YvWMIb-g1JlfHmVvu372-45" value="" style="shape=tableRow;horizontal=0;startSize=0;swimlaneHead=0;swimlaneBody=0;fillColor=none;collapsible=0;dropTarget=0;points=[[0,0.5],[1,0.5]];portConstraint=eastwest;top=0;left=0;right=0;bottom=0;fontSize=16;" vertex="1" parent="YvWMIb-g1JlfHmVvu372-38">
          <mxGeometry y="90" width="180" height="30" as="geometry" />
        </mxCell>
        <mxCell id="YvWMIb-g1JlfHmVvu372-46" value="" style="shape=partialRectangle;connectable=0;fillColor=none;top=0;left=0;bottom=0;right=0;editable=1;overflow=hidden;whiteSpace=wrap;html=1;fontSize=16;" vertex="1" parent="YvWMIb-g1JlfHmVvu372-45">
          <mxGeometry width="30" height="30" as="geometry">
            <mxRectangle width="30" height="30" as="alternateBounds" />
          </mxGeometry>
        </mxCell>
        <mxCell id="YvWMIb-g1JlfHmVvu372-47" value="ten" style="shape=partialRectangle;connectable=0;fillColor=none;top=0;left=0;bottom=0;right=0;align=left;spacingLeft=6;overflow=hidden;whiteSpace=wrap;html=1;fontSize=16;" vertex="1" parent="YvWMIb-g1JlfHmVvu372-45">
          <mxGeometry x="30" width="150" height="30" as="geometry">
            <mxRectangle width="150" height="30" as="alternateBounds" />
          </mxGeometry>
        </mxCell>
        <mxCell id="YvWMIb-g1JlfHmVvu372-48" value="" style="shape=tableRow;horizontal=0;startSize=0;swimlaneHead=0;swimlaneBody=0;fillColor=none;collapsible=0;dropTarget=0;points=[[0,0.5],[1,0.5]];portConstraint=eastwest;top=0;left=0;right=0;bottom=0;fontSize=16;" vertex="1" parent="YvWMIb-g1JlfHmVvu372-38">
          <mxGeometry y="120" width="180" height="30" as="geometry" />
        </mxCell>
        <mxCell id="YvWMIb-g1JlfHmVvu372-49" value="" style="shape=partialRectangle;connectable=0;fillColor=none;top=0;left=0;bottom=0;right=0;editable=1;overflow=hidden;whiteSpace=wrap;html=1;fontSize=16;" vertex="1" parent="YvWMIb-g1JlfHmVvu372-48">
          <mxGeometry width="30" height="30" as="geometry">
            <mxRectangle width="30" height="30" as="alternateBounds" />
          </mxGeometry>
        </mxCell>
        <mxCell id="YvWMIb-g1JlfHmVvu372-50" value="theLoai" style="shape=partialRectangle;connectable=0;fillColor=none;top=0;left=0;bottom=0;right=0;align=left;spacingLeft=6;overflow=hidden;whiteSpace=wrap;html=1;fontSize=16;" vertex="1" parent="YvWMIb-g1JlfHmVvu372-48">
          <mxGeometry x="30" width="150" height="30" as="geometry">
            <mxRectangle width="150" height="30" as="alternateBounds" />
          </mxGeometry>
        </mxCell>
        <mxCell id="YvWMIb-g1JlfHmVvu372-51" value="" style="shape=tableRow;horizontal=0;startSize=0;swimlaneHead=0;swimlaneBody=0;fillColor=none;collapsible=0;dropTarget=0;points=[[0,0.5],[1,0.5]];portConstraint=eastwest;top=0;left=0;right=0;bottom=0;fontSize=16;" vertex="1" parent="YvWMIb-g1JlfHmVvu372-38">
          <mxGeometry y="150" width="180" height="30" as="geometry" />
        </mxCell>
        <mxCell id="YvWMIb-g1JlfHmVvu372-52" value="" style="shape=partialRectangle;connectable=0;fillColor=none;top=0;left=0;bottom=0;right=0;editable=1;overflow=hidden;whiteSpace=wrap;html=1;fontSize=16;" vertex="1" parent="YvWMIb-g1JlfHmVvu372-51">
          <mxGeometry width="30" height="30" as="geometry">
            <mxRectangle width="30" height="30" as="alternateBounds" />
          </mxGeometry>
        </mxCell>
        <mxCell id="YvWMIb-g1JlfHmVvu372-53" value="ngaySinh" style="shape=partialRectangle;connectable=0;fillColor=none;top=0;left=0;bottom=0;right=0;align=left;spacingLeft=6;overflow=hidden;whiteSpace=wrap;html=1;fontSize=16;" vertex="1" parent="YvWMIb-g1JlfHmVvu372-51">
          <mxGeometry x="30" width="150" height="30" as="geometry">
            <mxRectangle width="150" height="30" as="alternateBounds" />
          </mxGeometry>
        </mxCell>
        <mxCell id="YvWMIb-g1JlfHmVvu372-54" value="MonHoc" style="shape=table;startSize=30;container=1;collapsible=1;childLayout=tableLayout;fixedRows=1;rowLines=0;fontStyle=1;align=center;resizeLast=1;html=1;fontSize=16;" vertex="1" parent="1">
          <mxGeometry x="-357" y="15" width="207.247802734375" height="358" as="geometry" />
        </mxCell>
        <mxCell id="YvWMIb-g1JlfHmVvu372-55" value="" style="shape=tableRow;horizontal=0;startSize=0;swimlaneHead=0;swimlaneBody=0;fillColor=none;collapsible=0;dropTarget=0;points=[[0,0.5],[1,0.5]];portConstraint=eastwest;top=0;left=0;right=0;bottom=1;fontSize=16;" vertex="1" parent="YvWMIb-g1JlfHmVvu372-54">
          <mxGeometry y="30" width="207.247802734375" height="30" as="geometry" />
        </mxCell>
        <mxCell id="YvWMIb-g1JlfHmVvu372-56" value="PK" style="shape=partialRectangle;connectable=0;fillColor=none;top=0;left=0;bottom=0;right=0;fontStyle=1;overflow=hidden;whiteSpace=wrap;html=1;fontSize=16;" vertex="1" parent="YvWMIb-g1JlfHmVvu372-55">
          <mxGeometry width="30" height="30" as="geometry">
            <mxRectangle width="30" height="30" as="alternateBounds" />
          </mxGeometry>
        </mxCell>
        <mxCell id="YvWMIb-g1JlfHmVvu372-57" value="maMonHoc" style="shape=partialRectangle;connectable=0;fillColor=none;top=0;left=0;bottom=0;right=0;align=left;spacingLeft=6;fontStyle=5;overflow=hidden;whiteSpace=wrap;html=1;fontSize=16;" vertex="1" parent="YvWMIb-g1JlfHmVvu372-55">
          <mxGeometry x="30" width="177.247802734375" height="30" as="geometry">
            <mxRectangle width="177.247802734375" height="30" as="alternateBounds" />
          </mxGeometry>
        </mxCell>
        <mxCell id="YvWMIb-g1JlfHmVvu372-58" value="" style="shape=tableRow;horizontal=0;startSize=0;swimlaneHead=0;swimlaneBody=0;fillColor=none;collapsible=0;dropTarget=0;points=[[0,0.5],[1,0.5]];portConstraint=eastwest;top=0;left=0;right=0;bottom=0;fontSize=16;" vertex="1" parent="YvWMIb-g1JlfHmVvu372-54">
          <mxGeometry y="60" width="207.247802734375" height="28" as="geometry" />
        </mxCell>
        <mxCell id="YvWMIb-g1JlfHmVvu372-59" value="" style="shape=partialRectangle;connectable=0;fillColor=none;top=0;left=0;bottom=0;right=0;editable=1;overflow=hidden;whiteSpace=wrap;html=1;fontSize=16;" vertex="1" parent="YvWMIb-g1JlfHmVvu372-58">
          <mxGeometry width="30" height="28" as="geometry">
            <mxRectangle width="30" height="28" as="alternateBounds" />
          </mxGeometry>
        </mxCell>
        <mxCell id="YvWMIb-g1JlfHmVvu372-60" value="tenMonHoc" style="shape=partialRectangle;connectable=0;fillColor=none;top=0;left=0;bottom=0;right=0;align=left;spacingLeft=6;overflow=hidden;whiteSpace=wrap;html=1;fontSize=16;" vertex="1" parent="YvWMIb-g1JlfHmVvu372-58">
          <mxGeometry x="30" width="177.247802734375" height="28" as="geometry">
            <mxRectangle width="177.247802734375" height="28" as="alternateBounds" />
          </mxGeometry>
        </mxCell>
        <mxCell id="YvWMIb-g1JlfHmVvu372-61" value="" style="shape=tableRow;horizontal=0;startSize=0;swimlaneHead=0;swimlaneBody=0;fillColor=none;collapsible=0;dropTarget=0;points=[[0,0.5],[1,0.5]];portConstraint=eastwest;top=0;left=0;right=0;bottom=0;fontSize=16;" vertex="1" parent="YvWMIb-g1JlfHmVvu372-54">
          <mxGeometry y="88" width="207.247802734375" height="30" as="geometry" />
        </mxCell>
        <mxCell id="YvWMIb-g1JlfHmVvu372-62" value="" style="shape=partialRectangle;connectable=0;fillColor=none;top=0;left=0;bottom=0;right=0;editable=1;overflow=hidden;whiteSpace=wrap;html=1;fontSize=16;" vertex="1" parent="YvWMIb-g1JlfHmVvu372-61">
          <mxGeometry width="30" height="30" as="geometry">
            <mxRectangle width="30" height="30" as="alternateBounds" />
          </mxGeometry>
        </mxCell>
        <mxCell id="YvWMIb-g1JlfHmVvu372-63" value="soTinChi" style="shape=partialRectangle;connectable=0;fillColor=none;top=0;left=0;bottom=0;right=0;align=left;spacingLeft=6;overflow=hidden;whiteSpace=wrap;html=1;fontSize=16;" vertex="1" parent="YvWMIb-g1JlfHmVvu372-61">
          <mxGeometry x="30" width="177.247802734375" height="30" as="geometry">
            <mxRectangle width="177.247802734375" height="30" as="alternateBounds" />
          </mxGeometry>
        </mxCell>
        <mxCell id="YvWMIb-g1JlfHmVvu372-64" value="" style="shape=tableRow;horizontal=0;startSize=0;swimlaneHead=0;swimlaneBody=0;fillColor=none;collapsible=0;dropTarget=0;points=[[0,0.5],[1,0.5]];portConstraint=eastwest;top=0;left=0;right=0;bottom=0;fontSize=16;" vertex="1" parent="YvWMIb-g1JlfHmVvu372-54">
          <mxGeometry y="118" width="207.247802734375" height="30" as="geometry" />
        </mxCell>
        <mxCell id="YvWMIb-g1JlfHmVvu372-65" value="" style="shape=partialRectangle;connectable=0;fillColor=none;top=0;left=0;bottom=0;right=0;editable=1;overflow=hidden;whiteSpace=wrap;html=1;fontSize=16;" vertex="1" parent="YvWMIb-g1JlfHmVvu372-64">
          <mxGeometry width="30" height="30" as="geometry">
            <mxRectangle width="30" height="30" as="alternateBounds" />
          </mxGeometry>
        </mxCell>
        <mxCell id="YvWMIb-g1JlfHmVvu372-66" value="namBatDauApDung" style="shape=partialRectangle;connectable=0;fillColor=none;top=0;left=0;bottom=0;right=0;align=left;spacingLeft=6;overflow=hidden;whiteSpace=wrap;html=1;fontSize=16;" vertex="1" parent="YvWMIb-g1JlfHmVvu372-64">
          <mxGeometry x="30" width="177.247802734375" height="30" as="geometry">
            <mxRectangle width="177.247802734375" height="30" as="alternateBounds" />
          </mxGeometry>
        </mxCell>
        <mxCell id="YvWMIb-g1JlfHmVvu372-67" value="" style="shape=tableRow;horizontal=0;startSize=0;swimlaneHead=0;swimlaneBody=0;fillColor=none;collapsible=0;dropTarget=0;points=[[0,0.5],[1,0.5]];portConstraint=eastwest;top=0;left=0;right=0;bottom=0;fontSize=16;" vertex="1" parent="YvWMIb-g1JlfHmVvu372-54">
          <mxGeometry y="148" width="207.247802734375" height="30" as="geometry" />
        </mxCell>
        <mxCell id="YvWMIb-g1JlfHmVvu372-68" value="" style="shape=partialRectangle;connectable=0;fillColor=none;top=0;left=0;bottom=0;right=0;editable=1;overflow=hidden;whiteSpace=wrap;html=1;fontSize=16;" vertex="1" parent="YvWMIb-g1JlfHmVvu372-67">
          <mxGeometry width="30" height="30" as="geometry">
            <mxRectangle width="30" height="30" as="alternateBounds" />
          </mxGeometry>
        </mxCell>
        <mxCell id="YvWMIb-g1JlfHmVvu372-69" value="theLoai" style="shape=partialRectangle;connectable=0;fillColor=none;top=0;left=0;bottom=0;right=0;align=left;spacingLeft=6;overflow=hidden;whiteSpace=wrap;html=1;fontSize=16;" vertex="1" parent="YvWMIb-g1JlfHmVvu372-67">
          <mxGeometry x="30" width="177.247802734375" height="30" as="geometry">
            <mxRectangle width="177.247802734375" height="30" as="alternateBounds" />
          </mxGeometry>
        </mxCell>
        <mxCell id="YvWMIb-g1JlfHmVvu372-70" value="" style="shape=tableRow;horizontal=0;startSize=0;swimlaneHead=0;swimlaneBody=0;fillColor=none;collapsible=0;dropTarget=0;points=[[0,0.5],[1,0.5]];portConstraint=eastwest;top=0;left=0;right=0;bottom=0;fontSize=16;" vertex="1" parent="YvWMIb-g1JlfHmVvu372-54">
          <mxGeometry y="178" width="207.247802734375" height="30" as="geometry" />
        </mxCell>
        <mxCell id="YvWMIb-g1JlfHmVvu372-71" value="" style="shape=partialRectangle;connectable=0;fillColor=none;top=0;left=0;bottom=0;right=0;editable=1;overflow=hidden;whiteSpace=wrap;html=1;fontSize=16;" vertex="1" parent="YvWMIb-g1JlfHmVvu372-70">
          <mxGeometry width="30" height="30" as="geometry">
            <mxRectangle width="30" height="30" as="alternateBounds" />
          </mxGeometry>
        </mxCell>
        <mxCell id="YvWMIb-g1JlfHmVvu372-72" value="moTaTomTat" style="shape=partialRectangle;connectable=0;fillColor=none;top=0;left=0;bottom=0;right=0;align=left;spacingLeft=6;overflow=hidden;whiteSpace=wrap;html=1;fontSize=16;" vertex="1" parent="YvWMIb-g1JlfHmVvu372-70">
          <mxGeometry x="30" width="177.247802734375" height="30" as="geometry">
            <mxRectangle width="177.247802734375" height="30" as="alternateBounds" />
          </mxGeometry>
        </mxCell>
        <mxCell id="YvWMIb-g1JlfHmVvu372-73" value="" style="shape=tableRow;horizontal=0;startSize=0;swimlaneHead=0;swimlaneBody=0;fillColor=none;collapsible=0;dropTarget=0;points=[[0,0.5],[1,0.5]];portConstraint=eastwest;top=0;left=0;right=0;bottom=0;fontSize=16;" vertex="1" parent="YvWMIb-g1JlfHmVvu372-54">
          <mxGeometry y="208" width="207.247802734375" height="30" as="geometry" />
        </mxCell>
        <mxCell id="YvWMIb-g1JlfHmVvu372-74" value="" style="shape=partialRectangle;connectable=0;fillColor=none;top=0;left=0;bottom=0;right=0;editable=1;overflow=hidden;whiteSpace=wrap;html=1;fontSize=16;" vertex="1" parent="YvWMIb-g1JlfHmVvu372-73">
          <mxGeometry width="30" height="30" as="geometry">
            <mxRectangle width="30" height="30" as="alternateBounds" />
          </mxGeometry>
        </mxCell>
        <mxCell id="YvWMIb-g1JlfHmVvu372-75" value="moTaDayDu" style="shape=partialRectangle;connectable=0;fillColor=none;top=0;left=0;bottom=0;right=0;align=left;spacingLeft=6;overflow=hidden;whiteSpace=wrap;html=1;fontSize=16;" vertex="1" parent="YvWMIb-g1JlfHmVvu372-73">
          <mxGeometry x="30" width="177.247802734375" height="30" as="geometry">
            <mxRectangle width="177.247802734375" height="30" as="alternateBounds" />
          </mxGeometry>
        </mxCell>
        <mxCell id="YvWMIb-g1JlfHmVvu372-76" value="" style="shape=tableRow;horizontal=0;startSize=0;swimlaneHead=0;swimlaneBody=0;fillColor=none;collapsible=0;dropTarget=0;points=[[0,0.5],[1,0.5]];portConstraint=eastwest;top=0;left=0;right=0;bottom=0;fontSize=16;" vertex="1" parent="YvWMIb-g1JlfHmVvu372-54">
          <mxGeometry y="238" width="207.247802734375" height="30" as="geometry" />
        </mxCell>
        <mxCell id="YvWMIb-g1JlfHmVvu372-77" value="" style="shape=partialRectangle;connectable=0;fillColor=none;top=0;left=0;bottom=0;right=0;editable=1;overflow=hidden;whiteSpace=wrap;html=1;fontSize=16;" vertex="1" parent="YvWMIb-g1JlfHmVvu372-76">
          <mxGeometry width="30" height="30" as="geometry">
            <mxRectangle width="30" height="30" as="alternateBounds" />
          </mxGeometry>
        </mxCell>
        <mxCell id="YvWMIb-g1JlfHmVvu372-78" value="taiLieu" style="shape=partialRectangle;connectable=0;fillColor=none;top=0;left=0;bottom=0;right=0;align=left;spacingLeft=6;overflow=hidden;whiteSpace=wrap;html=1;fontSize=16;" vertex="1" parent="YvWMIb-g1JlfHmVvu372-76">
          <mxGeometry x="30" width="177.247802734375" height="30" as="geometry">
            <mxRectangle width="177.247802734375" height="30" as="alternateBounds" />
          </mxGeometry>
        </mxCell>
        <mxCell id="YvWMIb-g1JlfHmVvu372-79" value="" style="shape=tableRow;horizontal=0;startSize=0;swimlaneHead=0;swimlaneBody=0;fillColor=none;collapsible=0;dropTarget=0;points=[[0,0.5],[1,0.5]];portConstraint=eastwest;top=0;left=0;right=0;bottom=0;fontSize=16;" vertex="1" parent="YvWMIb-g1JlfHmVvu372-54">
          <mxGeometry y="268" width="207.247802734375" height="30" as="geometry" />
        </mxCell>
        <mxCell id="YvWMIb-g1JlfHmVvu372-80" value="" style="shape=partialRectangle;connectable=0;fillColor=none;top=0;left=0;bottom=0;right=0;editable=1;overflow=hidden;whiteSpace=wrap;html=1;fontSize=16;" vertex="1" parent="YvWMIb-g1JlfHmVvu372-79">
          <mxGeometry width="30" height="30" as="geometry">
            <mxRectangle width="30" height="30" as="alternateBounds" />
          </mxGeometry>
        </mxCell>
        <mxCell id="YvWMIb-g1JlfHmVvu372-81" value="mucTieuDauRa" style="shape=partialRectangle;connectable=0;fillColor=none;top=0;left=0;bottom=0;right=0;align=left;spacingLeft=6;overflow=hidden;whiteSpace=wrap;html=1;fontSize=16;" vertex="1" parent="YvWMIb-g1JlfHmVvu372-79">
          <mxGeometry x="30" width="177.247802734375" height="30" as="geometry">
            <mxRectangle width="177.247802734375" height="30" as="alternateBounds" />
          </mxGeometry>
        </mxCell>
        <mxCell id="YvWMIb-g1JlfHmVvu372-82" value="" style="shape=tableRow;horizontal=0;startSize=0;swimlaneHead=0;swimlaneBody=0;fillColor=none;collapsible=0;dropTarget=0;points=[[0,0.5],[1,0.5]];portConstraint=eastwest;top=0;left=0;right=0;bottom=0;fontSize=16;" vertex="1" parent="YvWMIb-g1JlfHmVvu372-54">
          <mxGeometry y="298" width="207.247802734375" height="30" as="geometry" />
        </mxCell>
        <mxCell id="YvWMIb-g1JlfHmVvu372-83" value="" style="shape=partialRectangle;connectable=0;fillColor=none;top=0;left=0;bottom=0;right=0;editable=1;overflow=hidden;whiteSpace=wrap;html=1;fontSize=16;" vertex="1" parent="YvWMIb-g1JlfHmVvu372-82">
          <mxGeometry width="30" height="30" as="geometry">
            <mxRectangle width="30" height="30" as="alternateBounds" />
          </mxGeometry>
        </mxCell>
        <mxCell id="YvWMIb-g1JlfHmVvu372-84" value="hinhThucDanhGia" style="shape=partialRectangle;connectable=0;fillColor=none;top=0;left=0;bottom=0;right=0;align=left;spacingLeft=6;overflow=hidden;whiteSpace=wrap;html=1;fontSize=16;" vertex="1" parent="YvWMIb-g1JlfHmVvu372-82">
          <mxGeometry x="30" width="177.247802734375" height="30" as="geometry">
            <mxRectangle width="177.247802734375" height="30" as="alternateBounds" />
          </mxGeometry>
        </mxCell>
        <mxCell id="YvWMIb-g1JlfHmVvu372-88" value="" style="shape=tableRow;horizontal=0;startSize=0;swimlaneHead=0;swimlaneBody=0;fillColor=none;collapsible=0;dropTarget=0;points=[[0,0.5],[1,0.5]];portConstraint=eastwest;top=0;left=0;right=0;bottom=0;fontSize=16;" vertex="1" parent="YvWMIb-g1JlfHmVvu372-54">
          <mxGeometry y="328" width="207.247802734375" height="30" as="geometry" />
        </mxCell>
        <mxCell id="YvWMIb-g1JlfHmVvu372-89" value="FK" style="shape=partialRectangle;connectable=0;fillColor=none;top=0;left=0;bottom=0;right=0;fontStyle=0;overflow=hidden;whiteSpace=wrap;html=1;fontSize=16;" vertex="1" parent="YvWMIb-g1JlfHmVvu372-88">
          <mxGeometry width="30" height="30" as="geometry">
            <mxRectangle width="30" height="30" as="alternateBounds" />
          </mxGeometry>
        </mxCell>
        <mxCell id="YvWMIb-g1JlfHmVvu372-90" value="maCTDT" style="shape=partialRectangle;connectable=0;fillColor=none;top=0;left=0;bottom=0;right=0;align=left;spacingLeft=6;fontStyle=0;overflow=hidden;whiteSpace=wrap;html=1;fontSize=16;" vertex="1" parent="YvWMIb-g1JlfHmVvu372-88">
          <mxGeometry x="30" width="177.247802734375" height="30" as="geometry">
            <mxRectangle width="177.247802734375" height="30" as="alternateBounds" />
          </mxGeometry>
        </mxCell>
        <mxCell id="YvWMIb-g1JlfHmVvu372-91" value="" style="edgeStyle=entityRelationEdgeStyle;fontSize=12;html=1;endArrow=ERoneToMany;rounded=0;startSize=8;endSize=8;curved=1;exitX=0;exitY=0.5;exitDx=0;exitDy=0;entryX=1;entryY=0.5;entryDx=0;entryDy=0;" edge="1" parent="1" source="YvWMIb-g1JlfHmVvu372-2" target="YvWMIb-g1JlfHmVvu372-88">
          <mxGeometry width="100" height="100" relative="1" as="geometry">
            <mxPoint x="-55" y="331" as="sourcePoint" />
            <mxPoint x="45" y="231" as="targetPoint" />
          </mxGeometry>
        </mxCell>
        <mxCell id="YvWMIb-g1JlfHmVvu372-92" value="LopHocPhan" style="shape=table;startSize=30;container=1;collapsible=1;childLayout=tableLayout;fixedRows=1;rowLines=0;fontStyle=1;align=center;resizeLast=1;html=1;fontSize=16;" vertex="1" parent="1">
          <mxGeometry x="-23" y="373" width="247" height="270" as="geometry" />
        </mxCell>
        <mxCell id="YvWMIb-g1JlfHmVvu372-93" value="" style="shape=tableRow;horizontal=0;startSize=0;swimlaneHead=0;swimlaneBody=0;fillColor=none;collapsible=0;dropTarget=0;points=[[0,0.5],[1,0.5]];portConstraint=eastwest;top=0;left=0;right=0;bottom=1;fontSize=16;" vertex="1" parent="YvWMIb-g1JlfHmVvu372-92">
          <mxGeometry y="30" width="247" height="30" as="geometry" />
        </mxCell>
        <mxCell id="YvWMIb-g1JlfHmVvu372-94" value="PK" style="shape=partialRectangle;connectable=0;fillColor=none;top=0;left=0;bottom=0;right=0;fontStyle=1;overflow=hidden;whiteSpace=wrap;html=1;fontSize=16;" vertex="1" parent="YvWMIb-g1JlfHmVvu372-93">
          <mxGeometry width="30" height="30" as="geometry">
            <mxRectangle width="30" height="30" as="alternateBounds" />
          </mxGeometry>
        </mxCell>
        <mxCell id="YvWMIb-g1JlfHmVvu372-95" value="maLopHocPhan" style="shape=partialRectangle;connectable=0;fillColor=none;top=0;left=0;bottom=0;right=0;align=left;spacingLeft=6;fontStyle=5;overflow=hidden;whiteSpace=wrap;html=1;fontSize=16;" vertex="1" parent="YvWMIb-g1JlfHmVvu372-93">
          <mxGeometry x="30" width="217" height="30" as="geometry">
            <mxRectangle width="217" height="30" as="alternateBounds" />
          </mxGeometry>
        </mxCell>
        <mxCell id="YvWMIb-g1JlfHmVvu372-96" value="" style="shape=tableRow;horizontal=0;startSize=0;swimlaneHead=0;swimlaneBody=0;fillColor=none;collapsible=0;dropTarget=0;points=[[0,0.5],[1,0.5]];portConstraint=eastwest;top=0;left=0;right=0;bottom=0;fontSize=16;" vertex="1" parent="YvWMIb-g1JlfHmVvu372-92">
          <mxGeometry y="60" width="247" height="30" as="geometry" />
        </mxCell>
        <mxCell id="YvWMIb-g1JlfHmVvu372-97" value="" style="shape=partialRectangle;connectable=0;fillColor=none;top=0;left=0;bottom=0;right=0;editable=1;overflow=hidden;whiteSpace=wrap;html=1;fontSize=16;" vertex="1" parent="YvWMIb-g1JlfHmVvu372-96">
          <mxGeometry width="30" height="30" as="geometry">
            <mxRectangle width="30" height="30" as="alternateBounds" />
          </mxGeometry>
        </mxCell>
        <mxCell id="YvWMIb-g1JlfHmVvu372-98" value="namHoc" style="shape=partialRectangle;connectable=0;fillColor=none;top=0;left=0;bottom=0;right=0;align=left;spacingLeft=6;overflow=hidden;whiteSpace=wrap;html=1;fontSize=16;" vertex="1" parent="YvWMIb-g1JlfHmVvu372-96">
          <mxGeometry x="30" width="217" height="30" as="geometry">
            <mxRectangle width="217" height="30" as="alternateBounds" />
          </mxGeometry>
        </mxCell>
        <mxCell id="YvWMIb-g1JlfHmVvu372-99" value="" style="shape=tableRow;horizontal=0;startSize=0;swimlaneHead=0;swimlaneBody=0;fillColor=none;collapsible=0;dropTarget=0;points=[[0,0.5],[1,0.5]];portConstraint=eastwest;top=0;left=0;right=0;bottom=0;fontSize=16;" vertex="1" parent="YvWMIb-g1JlfHmVvu372-92">
          <mxGeometry y="90" width="247" height="30" as="geometry" />
        </mxCell>
        <mxCell id="YvWMIb-g1JlfHmVvu372-100" value="" style="shape=partialRectangle;connectable=0;fillColor=none;top=0;left=0;bottom=0;right=0;editable=1;overflow=hidden;whiteSpace=wrap;html=1;fontSize=16;" vertex="1" parent="YvWMIb-g1JlfHmVvu372-99">
          <mxGeometry width="30" height="30" as="geometry">
            <mxRectangle width="30" height="30" as="alternateBounds" />
          </mxGeometry>
        </mxCell>
        <mxCell id="YvWMIb-g1JlfHmVvu372-101" value="hocKy" style="shape=partialRectangle;connectable=0;fillColor=none;top=0;left=0;bottom=0;right=0;align=left;spacingLeft=6;overflow=hidden;whiteSpace=wrap;html=1;fontSize=16;" vertex="1" parent="YvWMIb-g1JlfHmVvu372-99">
          <mxGeometry x="30" width="217" height="30" as="geometry">
            <mxRectangle width="217" height="30" as="alternateBounds" />
          </mxGeometry>
        </mxCell>
        <mxCell id="YvWMIb-g1JlfHmVvu372-102" value="" style="shape=tableRow;horizontal=0;startSize=0;swimlaneHead=0;swimlaneBody=0;fillColor=none;collapsible=0;dropTarget=0;points=[[0,0.5],[1,0.5]];portConstraint=eastwest;top=0;left=0;right=0;bottom=0;fontSize=16;" vertex="1" parent="YvWMIb-g1JlfHmVvu372-92">
          <mxGeometry y="120" width="247" height="30" as="geometry" />
        </mxCell>
        <mxCell id="YvWMIb-g1JlfHmVvu372-103" value="FK" style="shape=partialRectangle;connectable=0;fillColor=none;top=0;left=0;bottom=0;right=0;editable=1;overflow=hidden;whiteSpace=wrap;html=1;fontSize=16;" vertex="1" parent="YvWMIb-g1JlfHmVvu372-102">
          <mxGeometry width="30" height="30" as="geometry">
            <mxRectangle width="30" height="30" as="alternateBounds" />
          </mxGeometry>
        </mxCell>
        <mxCell id="YvWMIb-g1JlfHmVvu372-104" value="maMonHoc" style="shape=partialRectangle;connectable=0;fillColor=none;top=0;left=0;bottom=0;right=0;align=left;spacingLeft=6;overflow=hidden;whiteSpace=wrap;html=1;fontSize=16;" vertex="1" parent="YvWMIb-g1JlfHmVvu372-102">
          <mxGeometry x="30" width="217" height="30" as="geometry">
            <mxRectangle width="217" height="30" as="alternateBounds" />
          </mxGeometry>
        </mxCell>
        <mxCell id="YvWMIb-g1JlfHmVvu372-118" value="" style="shape=tableRow;horizontal=0;startSize=0;swimlaneHead=0;swimlaneBody=0;fillColor=none;collapsible=0;dropTarget=0;points=[[0,0.5],[1,0.5]];portConstraint=eastwest;top=0;left=0;right=0;bottom=0;fontSize=16;" vertex="1" parent="YvWMIb-g1JlfHmVvu372-92">
          <mxGeometry y="150" width="247" height="30" as="geometry" />
        </mxCell>
        <mxCell id="YvWMIb-g1JlfHmVvu372-119" value="FK" style="shape=partialRectangle;connectable=0;fillColor=none;top=0;left=0;bottom=0;right=0;editable=1;overflow=hidden;whiteSpace=wrap;html=1;fontSize=16;" vertex="1" parent="YvWMIb-g1JlfHmVvu372-118">
          <mxGeometry width="30" height="30" as="geometry">
            <mxRectangle width="30" height="30" as="alternateBounds" />
          </mxGeometry>
        </mxCell>
        <mxCell id="YvWMIb-g1JlfHmVvu372-120" value="maNhanVien" style="shape=partialRectangle;connectable=0;fillColor=none;top=0;left=0;bottom=0;right=0;align=left;spacingLeft=6;overflow=hidden;whiteSpace=wrap;html=1;fontSize=16;" vertex="1" parent="YvWMIb-g1JlfHmVvu372-118">
          <mxGeometry x="30" width="217" height="30" as="geometry">
            <mxRectangle width="217" height="30" as="alternateBounds" />
          </mxGeometry>
        </mxCell>
        <mxCell id="YvWMIb-g1JlfHmVvu372-121" value="" style="shape=tableRow;horizontal=0;startSize=0;swimlaneHead=0;swimlaneBody=0;fillColor=none;collapsible=0;dropTarget=0;points=[[0,0.5],[1,0.5]];portConstraint=eastwest;top=0;left=0;right=0;bottom=0;fontSize=16;" vertex="1" parent="YvWMIb-g1JlfHmVvu372-92">
          <mxGeometry y="180" width="247" height="30" as="geometry" />
        </mxCell>
        <mxCell id="YvWMIb-g1JlfHmVvu372-122" value="" style="shape=partialRectangle;connectable=0;fillColor=none;top=0;left=0;bottom=0;right=0;editable=1;overflow=hidden;whiteSpace=wrap;html=1;fontSize=16;" vertex="1" parent="YvWMIb-g1JlfHmVvu372-121">
          <mxGeometry width="30" height="30" as="geometry">
            <mxRectangle width="30" height="30" as="alternateBounds" />
          </mxGeometry>
        </mxCell>
        <mxCell id="YvWMIb-g1JlfHmVvu372-123" value="ngonNguGiangDay" style="shape=partialRectangle;connectable=0;fillColor=none;top=0;left=0;bottom=0;right=0;align=left;spacingLeft=6;overflow=hidden;whiteSpace=wrap;html=1;fontSize=16;" vertex="1" parent="YvWMIb-g1JlfHmVvu372-121">
          <mxGeometry x="30" width="217" height="30" as="geometry">
            <mxRectangle width="217" height="30" as="alternateBounds" />
          </mxGeometry>
        </mxCell>
        <mxCell id="YvWMIb-g1JlfHmVvu372-124" value="" style="shape=tableRow;horizontal=0;startSize=0;swimlaneHead=0;swimlaneBody=0;fillColor=none;collapsible=0;dropTarget=0;points=[[0,0.5],[1,0.5]];portConstraint=eastwest;top=0;left=0;right=0;bottom=0;fontSize=16;" vertex="1" parent="YvWMIb-g1JlfHmVvu372-92">
          <mxGeometry y="210" width="247" height="30" as="geometry" />
        </mxCell>
        <mxCell id="YvWMIb-g1JlfHmVvu372-125" value="" style="shape=partialRectangle;connectable=0;fillColor=none;top=0;left=0;bottom=0;right=0;editable=1;overflow=hidden;whiteSpace=wrap;html=1;fontSize=16;" vertex="1" parent="YvWMIb-g1JlfHmVvu372-124">
          <mxGeometry width="30" height="30" as="geometry">
            <mxRectangle width="30" height="30" as="alternateBounds" />
          </mxGeometry>
        </mxCell>
        <mxCell id="YvWMIb-g1JlfHmVvu372-126" value="moTa" style="shape=partialRectangle;connectable=0;fillColor=none;top=0;left=0;bottom=0;right=0;align=left;spacingLeft=6;overflow=hidden;whiteSpace=wrap;html=1;fontSize=16;" vertex="1" parent="YvWMIb-g1JlfHmVvu372-124">
          <mxGeometry x="30" width="217" height="30" as="geometry">
            <mxRectangle width="217" height="30" as="alternateBounds" />
          </mxGeometry>
        </mxCell>
        <mxCell id="YvWMIb-g1JlfHmVvu372-127" value="" style="shape=tableRow;horizontal=0;startSize=0;swimlaneHead=0;swimlaneBody=0;fillColor=none;collapsible=0;dropTarget=0;points=[[0,0.5],[1,0.5]];portConstraint=eastwest;top=0;left=0;right=0;bottom=0;fontSize=16;" vertex="1" parent="YvWMIb-g1JlfHmVvu372-92">
          <mxGeometry y="240" width="247" height="30" as="geometry" />
        </mxCell>
        <mxCell id="YvWMIb-g1JlfHmVvu372-128" value="" style="shape=partialRectangle;connectable=0;fillColor=none;top=0;left=0;bottom=0;right=0;editable=1;overflow=hidden;whiteSpace=wrap;html=1;fontSize=16;" vertex="1" parent="YvWMIb-g1JlfHmVvu372-127">
          <mxGeometry width="30" height="30" as="geometry">
            <mxRectangle width="30" height="30" as="alternateBounds" />
          </mxGeometry>
        </mxCell>
        <mxCell id="YvWMIb-g1JlfHmVvu372-129" value="gioiHanSoLuongSinhVien" style="shape=partialRectangle;connectable=0;fillColor=none;top=0;left=0;bottom=0;right=0;align=left;spacingLeft=6;overflow=hidden;whiteSpace=wrap;html=1;fontSize=16;" vertex="1" parent="YvWMIb-g1JlfHmVvu372-127">
          <mxGeometry x="30" width="217" height="30" as="geometry">
            <mxRectangle width="217" height="30" as="alternateBounds" />
          </mxGeometry>
        </mxCell>
        <mxCell id="YvWMIb-g1JlfHmVvu372-131" value="" style="edgeStyle=entityRelationEdgeStyle;fontSize=12;html=1;endArrow=ERoneToMany;rounded=0;startSize=8;endSize=8;curved=1;entryX=0;entryY=0.5;entryDx=0;entryDy=0;" edge="1" parent="1" source="YvWMIb-g1JlfHmVvu372-55" target="YvWMIb-g1JlfHmVvu372-102">
          <mxGeometry width="100" height="100" relative="1" as="geometry">
            <mxPoint x="-366" y="55" as="sourcePoint" />
            <mxPoint x="-115" y="547" as="targetPoint" />
            <Array as="points">
              <mxPoint x="-652" y="579" />
              <mxPoint x="-478" y="429" />
              <mxPoint x="-629" y="483" />
            </Array>
          </mxGeometry>
        </mxCell>
        <mxCell id="YvWMIb-g1JlfHmVvu372-134" value="" style="edgeStyle=entityRelationEdgeStyle;fontSize=12;html=1;endArrow=ERoneToMany;rounded=0;startSize=8;endSize=8;curved=1;entryX=1;entryY=0.5;entryDx=0;entryDy=0;exitX=0;exitY=0.5;exitDx=0;exitDy=0;" edge="1" parent="1" source="YvWMIb-g1JlfHmVvu372-39" target="YvWMIb-g1JlfHmVvu372-102">
          <mxGeometry width="100" height="100" relative="1" as="geometry">
            <mxPoint x="217" y="739" as="sourcePoint" />
            <mxPoint x="293" y="465" as="targetPoint" />
          </mxGeometry>
        </mxCell>
        <mxCell id="YvWMIb-g1JlfHmVvu372-135" value="ThamGiaHoc" style="shape=table;startSize=30;container=1;collapsible=1;childLayout=tableLayout;fixedRows=1;rowLines=0;fontStyle=1;align=center;resizeLast=1;html=1;fontSize=16;" vertex="1" parent="1">
          <mxGeometry x="440" y="335" width="180" height="150" as="geometry" />
        </mxCell>
        <mxCell id="YvWMIb-g1JlfHmVvu372-136" value="" style="shape=tableRow;horizontal=0;startSize=0;swimlaneHead=0;swimlaneBody=0;fillColor=none;collapsible=0;dropTarget=0;points=[[0,0.5],[1,0.5]];portConstraint=eastwest;top=0;left=0;right=0;bottom=1;fontSize=16;" vertex="1" parent="YvWMIb-g1JlfHmVvu372-135">
          <mxGeometry y="30" width="180" height="30" as="geometry" />
        </mxCell>
        <mxCell id="YvWMIb-g1JlfHmVvu372-137" value="PK" style="shape=partialRectangle;connectable=0;fillColor=none;top=0;left=0;bottom=0;right=0;fontStyle=1;overflow=hidden;whiteSpace=wrap;html=1;fontSize=16;" vertex="1" parent="YvWMIb-g1JlfHmVvu372-136">
          <mxGeometry width="30" height="30" as="geometry">
            <mxRectangle width="30" height="30" as="alternateBounds" />
          </mxGeometry>
        </mxCell>
        <mxCell id="YvWMIb-g1JlfHmVvu372-138" value="maLopHocPhan" style="shape=partialRectangle;connectable=0;fillColor=none;top=0;left=0;bottom=0;right=0;align=left;spacingLeft=6;fontStyle=5;overflow=hidden;whiteSpace=wrap;html=1;fontSize=16;" vertex="1" parent="YvWMIb-g1JlfHmVvu372-136">
          <mxGeometry x="30" width="150" height="30" as="geometry">
            <mxRectangle width="150" height="30" as="alternateBounds" />
          </mxGeometry>
        </mxCell>
        <mxCell id="YvWMIb-g1JlfHmVvu372-154" value="" style="shape=tableRow;horizontal=0;startSize=0;swimlaneHead=0;swimlaneBody=0;fillColor=none;collapsible=0;dropTarget=0;points=[[0,0.5],[1,0.5]];portConstraint=eastwest;top=0;left=0;right=0;bottom=1;fontSize=16;" vertex="1" parent="YvWMIb-g1JlfHmVvu372-135">
          <mxGeometry y="60" width="180" height="30" as="geometry" />
        </mxCell>
        <mxCell id="YvWMIb-g1JlfHmVvu372-155" value="PK" style="shape=partialRectangle;connectable=0;fillColor=none;top=0;left=0;bottom=0;right=0;fontStyle=1;overflow=hidden;whiteSpace=wrap;html=1;fontSize=16;" vertex="1" parent="YvWMIb-g1JlfHmVvu372-154">
          <mxGeometry width="30" height="30" as="geometry">
            <mxRectangle width="30" height="30" as="alternateBounds" />
          </mxGeometry>
        </mxCell>
        <mxCell id="YvWMIb-g1JlfHmVvu372-156" value="maSinhVien" style="shape=partialRectangle;connectable=0;fillColor=none;top=0;left=0;bottom=0;right=0;align=left;spacingLeft=6;fontStyle=5;overflow=hidden;whiteSpace=wrap;html=1;fontSize=16;" vertex="1" parent="YvWMIb-g1JlfHmVvu372-154">
          <mxGeometry x="30" width="150" height="30" as="geometry">
            <mxRectangle width="150" height="30" as="alternateBounds" />
          </mxGeometry>
        </mxCell>
        <mxCell id="YvWMIb-g1JlfHmVvu372-139" value="" style="shape=tableRow;horizontal=0;startSize=0;swimlaneHead=0;swimlaneBody=0;fillColor=none;collapsible=0;dropTarget=0;points=[[0,0.5],[1,0.5]];portConstraint=eastwest;top=0;left=0;right=0;bottom=0;fontSize=16;" vertex="1" parent="YvWMIb-g1JlfHmVvu372-135">
          <mxGeometry y="90" width="180" height="30" as="geometry" />
        </mxCell>
        <mxCell id="YvWMIb-g1JlfHmVvu372-140" value="" style="shape=partialRectangle;connectable=0;fillColor=none;top=0;left=0;bottom=0;right=0;editable=1;overflow=hidden;whiteSpace=wrap;html=1;fontSize=16;" vertex="1" parent="YvWMIb-g1JlfHmVvu372-139">
          <mxGeometry width="30" height="30" as="geometry">
            <mxRectangle width="30" height="30" as="alternateBounds" />
          </mxGeometry>
        </mxCell>
        <mxCell id="YvWMIb-g1JlfHmVvu372-141" value="diemSo" style="shape=partialRectangle;connectable=0;fillColor=none;top=0;left=0;bottom=0;right=0;align=left;spacingLeft=6;overflow=hidden;whiteSpace=wrap;html=1;fontSize=16;" vertex="1" parent="YvWMIb-g1JlfHmVvu372-139">
          <mxGeometry x="30" width="150" height="30" as="geometry">
            <mxRectangle width="150" height="30" as="alternateBounds" />
          </mxGeometry>
        </mxCell>
        <mxCell id="YvWMIb-g1JlfHmVvu372-142" value="" style="shape=tableRow;horizontal=0;startSize=0;swimlaneHead=0;swimlaneBody=0;fillColor=none;collapsible=0;dropTarget=0;points=[[0,0.5],[1,0.5]];portConstraint=eastwest;top=0;left=0;right=0;bottom=0;fontSize=16;" vertex="1" parent="YvWMIb-g1JlfHmVvu372-135">
          <mxGeometry y="120" width="180" height="30" as="geometry" />
        </mxCell>
        <mxCell id="YvWMIb-g1JlfHmVvu372-143" value="" style="shape=partialRectangle;connectable=0;fillColor=none;top=0;left=0;bottom=0;right=0;editable=1;overflow=hidden;whiteSpace=wrap;html=1;fontSize=16;" vertex="1" parent="YvWMIb-g1JlfHmVvu372-142">
          <mxGeometry width="30" height="30" as="geometry">
            <mxRectangle width="30" height="30" as="alternateBounds" />
          </mxGeometry>
        </mxCell>
        <mxCell id="YvWMIb-g1JlfHmVvu372-144" value="diemChu" style="shape=partialRectangle;connectable=0;fillColor=none;top=0;left=0;bottom=0;right=0;align=left;spacingLeft=6;overflow=hidden;whiteSpace=wrap;html=1;fontSize=16;" vertex="1" parent="YvWMIb-g1JlfHmVvu372-142">
          <mxGeometry x="30" width="150" height="30" as="geometry">
            <mxRectangle width="150" height="30" as="alternateBounds" />
          </mxGeometry>
        </mxCell>
        <mxCell id="YvWMIb-g1JlfHmVvu372-157" value="" style="edgeStyle=entityRelationEdgeStyle;fontSize=12;html=1;endArrow=ERoneToMany;rounded=0;startSize=8;endSize=8;curved=1;entryX=-0.016;entryY=0.758;entryDx=0;entryDy=0;entryPerimeter=0;exitX=1;exitY=0.5;exitDx=0;exitDy=0;" edge="1" parent="1" source="YvWMIb-g1JlfHmVvu372-93" target="YvWMIb-g1JlfHmVvu372-136">
          <mxGeometry width="100" height="100" relative="1" as="geometry">
            <mxPoint x="293" y="513" as="sourcePoint" />
            <mxPoint x="393" y="413" as="targetPoint" />
          </mxGeometry>
        </mxCell>
        <mxCell id="YvWMIb-g1JlfHmVvu372-158" value="" style="edgeStyle=entityRelationEdgeStyle;fontSize=12;html=1;endArrow=ERoneToMany;rounded=0;startSize=8;endSize=8;curved=1;exitX=1;exitY=0.5;exitDx=0;exitDy=0;" edge="1" parent="1" source="YvWMIb-g1JlfHmVvu372-15" target="YvWMIb-g1JlfHmVvu372-136">
          <mxGeometry width="100" height="100" relative="1" as="geometry">
            <mxPoint x="637" y="298" as="sourcePoint" />
            <mxPoint x="737" y="198" as="targetPoint" />
          </mxGeometry>
        </mxCell>
        <mxCell id="YvWMIb-g1JlfHmVvu372-159" value="NguoiDung" style="shape=table;startSize=30;container=1;collapsible=1;childLayout=tableLayout;fixedRows=1;rowLines=0;fontStyle=1;align=center;resizeLast=1;html=1;fontSize=16;" vertex="1" parent="1">
          <mxGeometry x="914" y="413" width="180" height="180" as="geometry" />
        </mxCell>
        <mxCell id="YvWMIb-g1JlfHmVvu372-160" value="" style="shape=tableRow;horizontal=0;startSize=0;swimlaneHead=0;swimlaneBody=0;fillColor=none;collapsible=0;dropTarget=0;points=[[0,0.5],[1,0.5]];portConstraint=eastwest;top=0;left=0;right=0;bottom=1;fontSize=16;" vertex="1" parent="YvWMIb-g1JlfHmVvu372-159">
          <mxGeometry y="30" width="180" height="30" as="geometry" />
        </mxCell>
        <mxCell id="YvWMIb-g1JlfHmVvu372-161" value="PK" style="shape=partialRectangle;connectable=0;fillColor=none;top=0;left=0;bottom=0;right=0;fontStyle=1;overflow=hidden;whiteSpace=wrap;html=1;fontSize=16;" vertex="1" parent="YvWMIb-g1JlfHmVvu372-160">
          <mxGeometry width="30" height="30" as="geometry">
            <mxRectangle width="30" height="30" as="alternateBounds" />
          </mxGeometry>
        </mxCell>
        <mxCell id="YvWMIb-g1JlfHmVvu372-162" value="tenNguoiDung" style="shape=partialRectangle;connectable=0;fillColor=none;top=0;left=0;bottom=0;right=0;align=left;spacingLeft=6;fontStyle=5;overflow=hidden;whiteSpace=wrap;html=1;fontSize=16;" vertex="1" parent="YvWMIb-g1JlfHmVvu372-160">
          <mxGeometry x="30" width="150" height="30" as="geometry">
            <mxRectangle width="150" height="30" as="alternateBounds" />
          </mxGeometry>
        </mxCell>
        <mxCell id="YvWMIb-g1JlfHmVvu372-163" value="" style="shape=tableRow;horizontal=0;startSize=0;swimlaneHead=0;swimlaneBody=0;fillColor=none;collapsible=0;dropTarget=0;points=[[0,0.5],[1,0.5]];portConstraint=eastwest;top=0;left=0;right=0;bottom=0;fontSize=16;" vertex="1" parent="YvWMIb-g1JlfHmVvu372-159">
          <mxGeometry y="60" width="180" height="30" as="geometry" />
        </mxCell>
        <mxCell id="YvWMIb-g1JlfHmVvu372-164" value="" style="shape=partialRectangle;connectable=0;fillColor=none;top=0;left=0;bottom=0;right=0;editable=1;overflow=hidden;whiteSpace=wrap;html=1;fontSize=16;" vertex="1" parent="YvWMIb-g1JlfHmVvu372-163">
          <mxGeometry width="30" height="30" as="geometry">
            <mxRectangle width="30" height="30" as="alternateBounds" />
          </mxGeometry>
        </mxCell>
        <mxCell id="YvWMIb-g1JlfHmVvu372-165" value="matKhau" style="shape=partialRectangle;connectable=0;fillColor=none;top=0;left=0;bottom=0;right=0;align=left;spacingLeft=6;overflow=hidden;whiteSpace=wrap;html=1;fontSize=16;" vertex="1" parent="YvWMIb-g1JlfHmVvu372-163">
          <mxGeometry x="30" width="150" height="30" as="geometry">
            <mxRectangle width="150" height="30" as="alternateBounds" />
          </mxGeometry>
        </mxCell>
        <mxCell id="YvWMIb-g1JlfHmVvu372-166" value="" style="shape=tableRow;horizontal=0;startSize=0;swimlaneHead=0;swimlaneBody=0;fillColor=none;collapsible=0;dropTarget=0;points=[[0,0.5],[1,0.5]];portConstraint=eastwest;top=0;left=0;right=0;bottom=0;fontSize=16;" vertex="1" parent="YvWMIb-g1JlfHmVvu372-159">
          <mxGeometry y="90" width="180" height="30" as="geometry" />
        </mxCell>
        <mxCell id="YvWMIb-g1JlfHmVvu372-167" value="" style="shape=partialRectangle;connectable=0;fillColor=none;top=0;left=0;bottom=0;right=0;editable=1;overflow=hidden;whiteSpace=wrap;html=1;fontSize=16;" vertex="1" parent="YvWMIb-g1JlfHmVvu372-166">
          <mxGeometry width="30" height="30" as="geometry">
            <mxRectangle width="30" height="30" as="alternateBounds" />
          </mxGeometry>
        </mxCell>
        <mxCell id="YvWMIb-g1JlfHmVvu372-168" value="theLoai" style="shape=partialRectangle;connectable=0;fillColor=none;top=0;left=0;bottom=0;right=0;align=left;spacingLeft=6;overflow=hidden;whiteSpace=wrap;html=1;fontSize=16;" vertex="1" parent="YvWMIb-g1JlfHmVvu372-166">
          <mxGeometry x="30" width="150" height="30" as="geometry">
            <mxRectangle width="150" height="30" as="alternateBounds" />
          </mxGeometry>
        </mxCell>
        <mxCell id="YvWMIb-g1JlfHmVvu372-169" value="" style="shape=tableRow;horizontal=0;startSize=0;swimlaneHead=0;swimlaneBody=0;fillColor=none;collapsible=0;dropTarget=0;points=[[0,0.5],[1,0.5]];portConstraint=eastwest;top=0;left=0;right=0;bottom=0;fontSize=16;" vertex="1" parent="YvWMIb-g1JlfHmVvu372-159">
          <mxGeometry y="120" width="180" height="30" as="geometry" />
        </mxCell>
        <mxCell id="YvWMIb-g1JlfHmVvu372-170" value="" style="shape=partialRectangle;connectable=0;fillColor=none;top=0;left=0;bottom=0;right=0;editable=1;overflow=hidden;whiteSpace=wrap;html=1;fontSize=16;" vertex="1" parent="YvWMIb-g1JlfHmVvu372-169">
          <mxGeometry width="30" height="30" as="geometry">
            <mxRectangle width="30" height="30" as="alternateBounds" />
          </mxGeometry>
        </mxCell>
        <mxCell id="YvWMIb-g1JlfHmVvu372-171" value="maSinhVien" style="shape=partialRectangle;connectable=0;fillColor=none;top=0;left=0;bottom=0;right=0;align=left;spacingLeft=6;overflow=hidden;whiteSpace=wrap;html=1;fontSize=16;" vertex="1" parent="YvWMIb-g1JlfHmVvu372-169">
          <mxGeometry x="30" width="150" height="30" as="geometry">
            <mxRectangle width="150" height="30" as="alternateBounds" />
          </mxGeometry>
        </mxCell>
        <mxCell id="YvWMIb-g1JlfHmVvu372-175" value="" style="shape=tableRow;horizontal=0;startSize=0;swimlaneHead=0;swimlaneBody=0;fillColor=none;collapsible=0;dropTarget=0;points=[[0,0.5],[1,0.5]];portConstraint=eastwest;top=0;left=0;right=0;bottom=0;fontSize=16;" vertex="1" parent="YvWMIb-g1JlfHmVvu372-159">
          <mxGeometry y="150" width="180" height="30" as="geometry" />
        </mxCell>
        <mxCell id="YvWMIb-g1JlfHmVvu372-176" value="" style="shape=partialRectangle;connectable=0;fillColor=none;top=0;left=0;bottom=0;right=0;editable=1;overflow=hidden;whiteSpace=wrap;html=1;fontSize=16;" vertex="1" parent="YvWMIb-g1JlfHmVvu372-175">
          <mxGeometry width="30" height="30" as="geometry">
            <mxRectangle width="30" height="30" as="alternateBounds" />
          </mxGeometry>
        </mxCell>
        <mxCell id="YvWMIb-g1JlfHmVvu372-177" value="maNhanVien" style="shape=partialRectangle;connectable=0;fillColor=none;top=0;left=0;bottom=0;right=0;align=left;spacingLeft=6;overflow=hidden;whiteSpace=wrap;html=1;fontSize=16;" vertex="1" parent="YvWMIb-g1JlfHmVvu372-175">
          <mxGeometry x="30" width="150" height="30" as="geometry">
            <mxRectangle width="150" height="30" as="alternateBounds" />
          </mxGeometry>
        </mxCell>
        <mxCell id="YvWMIb-g1JlfHmVvu372-178" value="" style="edgeStyle=entityRelationEdgeStyle;fontSize=12;html=1;endArrow=ERzeroToOne;endFill=1;rounded=0;startSize=8;endSize=8;curved=1;exitX=1;exitY=0.5;exitDx=0;exitDy=0;entryX=0;entryY=0.5;entryDx=0;entryDy=0;" edge="1" parent="1" source="YvWMIb-g1JlfHmVvu372-15" target="YvWMIb-g1JlfHmVvu372-169">
          <mxGeometry width="100" height="100" relative="1" as="geometry">
            <mxPoint x="1180.48" y="505.78000000000003" as="sourcePoint" />
            <mxPoint x="841" y="-3.9999999999999574" as="targetPoint" />
            <Array as="points">
              <mxPoint x="1053.54" y="151.3" />
              <mxPoint x="1066.54" y="224.3" />
              <mxPoint x="1424.54" y="808.3" />
              <mxPoint x="833.54" y="9.299999999999997" />
            </Array>
          </mxGeometry>
        </mxCell>
        <mxCell id="YvWMIb-g1JlfHmVvu372-180" value="" style="edgeStyle=entityRelationEdgeStyle;fontSize=12;html=1;endArrow=ERzeroToOne;endFill=1;rounded=0;startSize=8;endSize=8;curved=1;exitX=1;exitY=0.5;exitDx=0;exitDy=0;entryX=0;entryY=0.5;entryDx=0;entryDy=0;" edge="1" parent="1" source="YvWMIb-g1JlfHmVvu372-39" target="YvWMIb-g1JlfHmVvu372-175">
          <mxGeometry width="100" height="100" relative="1" as="geometry">
            <mxPoint x="1140.42" y="646" as="sourcePoint" />
            <mxPoint x="867.5799999999998" y="668.1500000000001" as="targetPoint" />
          </mxGeometry>
        </mxCell>
      </root>
    </mxGraphModel>
  </diagram>
</mxfile>
